<svg fill="none" height="35" viewBox="0 0 35 35" width="35" xmlns="http://www.w3.org/2000/svg"><path clip-rule="evenodd" d="m3.25 4c0-.41421.33579-.75.75-.75h16c.4142 0 .75.33579.75.75v16c0 .4142-.3358.75-.75.75h-6c-.4142 0-.75-.3358-.75-.75s.3358-.75.75-.75h5.25v-14.5h-14.5v5.25c0 .4142-.33579.75-.75.75s-.75-.3358-.75-.75zm9.2197 2.46967c.2929-.29289.7677-.29289 1.0606 0l4 4.00003c.2929.2929.2929.7677 0 1.0606l-8.99997 9c-.14065.1407-.33142.2197-.53033.2197h-4c-.41421 0-.75-.3358-.75-.75v-4c0-.1989.07902-.3897.21967-.5303zm-1.409 3.53033 2.9393 2.9393 1.9393-1.9393-2.9393-2.93934zm1.8786 4-2.9393-2.9393-5.25 5.25v2.9393h2.93934z" fill="#fff" fill-rule="evenodd"/></svg>