<svg id="Layer_1" enable-background="new 0 0 152 152" height="512" viewBox="0 0 152 152" width="512" xmlns="http://www.w3.org/2000/svg"><path id="Icon" d="m76 11c-35.9 0-65 29.1-65 65 0 13.6 4.4 27 12.3 38l-8.1 24.2 25-8c29.9 19.8 70.3 11.5 90-18.5s11.5-70.3-18.5-90c-10.5-6.9-23-10.7-35.7-10.7zm34.6 92-7 6.8c-7.3 7.3-26.6-.6-43.7-17.9s-24.7-36.4-17.8-43.5l7-7c2.8-2.6 7-2.6 9.9 0l10.2 10.2c2.8 2.6 2.8 6.8.2 9.6-.8.8-1.6 1.3-2.8 1.6-3.4 1.1-5.4 4.5-4.4 8 1.8 7.6 11.7 17.1 19 19 3.4.6 6.8-1.1 8-4.4 1.1-3.6 5-5.5 8.6-4.4 1.1.3 1.9 1 2.8 1.8l10.2 10.2c2.2 2.8 2.2 7.2-.2 10z"/></svg>